# xmcd
#
# Track frame offsets: 
#        180
#        13245
#        25285
#        58564
#        73159
#        94481
#        106759
#        125766
#        143005
#        161777
#        171336
#        197533
#        208110
#        221221
#
# Disc length: 3344 seconds
#
# Revision: 0
# Processed by: cddbd v1.5.2PL0 Copyright (c) Steve Scherf et al.
# Submitted via: ExactAudioCopy v0.99pb5
#
DISCID=d90d0e0e
DTITLE=Sidekick - one
DYEAR=1998
DGENRE=Blues
TTITLE0=Caldonia
TTITLE1=You Don't Have To Go
TTITLE2=No Better Than The Rest
TTITLE3=Dust On The Highway
TTITLE4=Dreaming
TTITLE5=The Old Maids Boogie
TTITLE6=Thrill is Gone
TTITLE7=She's Into Something
TTITLE8=You Worry Me
TTITLE9=Jazz
TTITLE10=Remember
TTITLE11=So Fine
TTITLE12=In The Midnight Hour
TTITLE13=Love Like Yours
EXTD=
EXTT0=
EXTT1=
EXTT2=
EXTT3=
EXTT4=
EXTT5=
EXTT6=
EXTT7=
EXTT8=
EXTT9=
EXTT10=
EXTT11=
EXTT12=
EXTT13=
PLAYORDER=
